name rise44.9368peak50.754fall52.0217.mot
datacolumns 19
datarows 23
range 14.08828400000000 14.12495300000000
endheader
time	ground_force1_vx	ground_force1_vy	ground_force1_vz	ground_force1_px	ground_force1_py	ground_force1_pz	ground_force2_vx	ground_force2_vy	ground_force2_vz	ground_force2_px	ground_force2_py	ground_force2_pz	ground_torque1_x	ground_torque1_y	ground_torque1_z	ground_torque2_x	ground_torque2_y	ground_torque2_z	
14.08828400000000	-46.00435700000000	796.48344499999996	61.91205800000000	0.17383800000000	0.00000000000000	0.12583800000000	-2.58086300000000	16.44619300000000	2.18347900000000	0.00000000000000	0.00000000000000	0.00000000000000	0.00000000000000	31.19720100000000	0.00000000000000	0.00000000000000	0.87462200000000	0.00000000000000	
14.08994900000000	-46.57120000000000	795.11566700000003	61.90357000000000	0.17286400000000	0.00000000000000	0.12578300000000	-3.24082200000000	22.08889100000000	2.78409000000000	0.00000000000000	0.00000000000000	0.00000000000000	0.00000000000000	31.17185700000000	0.00000000000000	0.00000000000000	1.12065100000000	0.00000000000000	
14.09161600000000	-47.15049000000000	793.64140299999997	61.87447500000000	0.17188800000000	0.00000000000000	0.12572400000000	-3.90238000000000	28.27555400000000	3.40164000000000	0.38471400000000	0.00000000000000	-0.09069400000000	0.00000000000000	31.14385200000000	0.00000000000000	0.00000000000000	2.33042200000000	0.00000000000000	
14.09328100000000	-47.74225500000000	792.05886199999998	61.82410800000000	0.17091000000000	0.00000000000000	0.12566200000000	-4.53856100000000	34.88776800000000	4.01481600000000	0.38922900000000	0.00000000000000	-0.09151100000000	0.00000000000000	31.11314600000000	0.00000000000000	0.00000000000000	2.77886100000000	0.00000000000000	
14.09495100000000	-48.34646800000000	790.36620900000003	61.75183400000000	0.16993000000000	0.00000000000000	0.12559700000000	-5.12302300000000	41.79856500000000	4.60244900000000	0.39320900000000	0.00000000000000	-0.09224200000000	0.00000000000000	31.07970100000000	0.00000000000000	0.00000000000000	3.21706200000000	0.00000000000000	
14.09661700000000	-48.96303900000000	788.56157199999996	61.65705400000000	0.16894900000000	0.00000000000000	0.12552800000000	-5.63190300000000	48.88298000000000	5.14504700000000	0.39674300000000	0.00000000000000	-0.09290400000000	0.00000000000000	31.04347700000000	0.00000000000000	0.00000000000000	3.63134300000000	0.00000000000000	
14.09828200000000	-49.59181600000000	786.64304000000004	61.53920400000000	0.16796600000000	0.00000000000000	0.12545500000000	-6.04532800000000	56.02753900000000	5.62606500000000	0.39990400000000	0.00000000000000	-0.09350700000000	0.00000000000000	31.00442900000000	0.00000000000000	0.00000000000000	4.00991500000000	0.00000000000000	
14.09995300000000	-50.23258500000000	784.60865899999999	61.39776000000000	0.16698200000000	0.00000000000000	0.12537900000000	-6.34842800000000	63.13765000000000	6.03278900000000	0.40274900000000	0.00000000000000	-0.09406000000000	0.00000000000000	30.96251500000000	0.00000000000000	0.00000000000000	4.34354000000000	0.00000000000000	
14.10162100000000	-50.88506500000000	782.45643500000006	61.23223800000000	0.16599800000000	0.00000000000000	0.12529900000000	-6.53181000000000	70.14240100000001	6.35678600000000	0.40532600000000	0.00000000000000	-0.09457100000000	0.00000000000000	30.91768800000000	0.00000000000000	0.00000000000000	4.62590000000000	0.00000000000000	
14.10328500000000	-51.54890900000000	780.18433600000003	61.04219600000000	0.16501300000000	0.00000000000000	0.12521500000000	-6.59150800000000	76.99664000000000	6.59393900000000	0.40767100000000	0.00000000000000	-0.09504500000000	0.00000000000000	30.86989900000000	0.00000000000000	0.00000000000000	4.85366100000000	0.00000000000000	
14.10495000000000	-52.22370300000000	777.79029500000001	60.82724000000000	0.16402900000000	0.00000000000000	0.12512700000000	-6.52851400000000	83.68060900000000	6.74412300000000	0.40981700000000	0.00000000000000	-0.09548800000000	0.00000000000000	30.81909800000000	0.00000000000000	0.00000000000000	5.02628700000000	0.00000000000000	
14.10661500000000	-52.90896200000000	775.27220899999998	60.58702000000000	0.16304500000000	0.00000000000000	0.12503600000000	-6.34797000000000	90.19753600000000	6.81060300000000	0.41179100000000	0.00000000000000	-0.09590300000000	0.00000000000000	30.76523100000000	0.00000000000000	0.00000000000000	5.14565100000000	0.00000000000000	
14.10828000000000	-53.60413500000000	772.62794499999995	60.32123600000000	0.16206300000000	0.00000000000000	0.12494100000000	-6.05817500000000	96.56975700000000	6.79926800000000	0.41361400000000	0.00000000000000	-0.09629400000000	0.00000000000000	30.70824000000000	0.00000000000000	0.00000000000000	5.21551600000000	0.00000000000000	
14.10995400000000	-54.30859600000000	769.85534399999995	60.02963800000000	0.16108200000000	0.00000000000000	0.12484200000000	-5.66949500000000	102.83393100000001	6.71776900000000	0.41530500000000	0.00000000000000	-0.09666300000000	0.00000000000000	30.64806700000000	0.00000000000000	0.00000000000000	5.24094900000000	0.00000000000000	
14.11161700000000	-55.02165300000000	766.95222699999999	59.71202700000000	0.16010300000000	0.00000000000000	0.12473800000000	-5.19330100000000	109.03592300000000	6.57467800000000	0.41688200000000	0.00000000000000	-0.09701300000000	0.00000000000000	30.58464500000000	0.00000000000000	0.00000000000000	5.22773000000000	0.00000000000000	
14.11328200000000	-55.74253900000000	763.91639799999996	59.36825900000000	0.15912700000000	0.00000000000000	0.12463200000000	-4.64101600000000	115.22580400000000	6.37870300000000	0.41835600000000	0.00000000000000	-0.09734500000000	0.00000000000000	30.51790600000000	0.00000000000000	0.00000000000000	5.18180300000000	0.00000000000000	
14.11494600000000	-56.47041800000000	760.74565199999995	58.99824100000000	0.15815500000000	0.00000000000000	0.12452100000000	-4.02331600000000	121.45336600000000	6.13803700000000	0.41974100000000	0.00000000000000	-0.09766300000000	0.00000000000000	30.44777900000000	0.00000000000000	0.00000000000000	5.10881100000000	0.00000000000000	
14.11661300000000	-57.20438000000000	757.43778199999997	58.60193700000000	0.15718600000000	0.00000000000000	0.12440600000000	-3.34952900000000	127.76440900000000	5.85985700000000	0.42104600000000	0.00000000000000	-0.09796600000000	0.00000000000000	30.37418300000000	0.00000000000000	0.00000000000000	5.01372800000000	0.00000000000000	
14.11828700000000	-57.94344800000000	753.99058500000001	58.17936600000000	0.15622300000000	0.00000000000000	0.12428700000000	-2.62725400000000	134.19795099999999	5.54998300000000	0.42228100000000	0.00000000000000	-0.09825600000000	0.00000000000000	30.29703600000000	0.00000000000000	0.00000000000000	4.90061400000000	0.00000000000000	
14.11995200000000	-58.68657100000000	750.40187100000003	57.73060400000000	0.15526400000000	0.00000000000000	0.12416400000000	-1.86217100000000	140.78440599999999	5.21270700000000	0.42345200000000	0.00000000000000	-0.09853500000000	0.00000000000000	30.21624900000000	0.00000000000000	0.00000000000000	4.77247600000000	0.00000000000000	
14.12162000000000	-59.43262900000000	746.66947200000004	57.25578400000000	0.15431100000000	0.00000000000000	0.12403800000000	-1.05803300000000	147.54471599999999	4.85076300000000	0.42456700000000	0.00000000000000	-0.09880300000000	0.00000000000000	30.13172600000000	0.00000000000000	0.00000000000000	4.63123300000000	0.00000000000000	
14.12328000000000	-60.18043300000000	742.79124999999999	56.75509300000000	0.15336500000000	0.00000000000000	0.12390700000000	-0.21681800000000	154.49029200000001	4.46542100000000	0.42563100000000	0.00000000000000	-0.09906100000000	0.00000000000000	30.04336500000000	0.00000000000000	0.00000000000000	4.47777400000000	0.00000000000000	
14.12495300000000	-60.92872600000000	738.76510699999994	56.22877900000000	0.15242500000000	0.00000000000000	0.12377300000000	0.66102500000000	161.62366499999999	4.05667700000000	0.42664900000000	0.00000000000000	-0.09931000000000	0.00000000000000	29.95105900000000	0.00000000000000	0.00000000000000	4.31207600000000	0.00000000000000	
